<svg width="388" height="143" viewBox="0 0 388 143" fill="none" xmlns="http://www.w3.org/2000/svg">
<g clip-path="url(#clip0_9_574)">
<rect width="388" height="143" rx="8" fill="#1B1B1F"/>
<circle cx="22.6075" cy="56.2955" r="9.29547" fill="#1F2937"/>
<circle cx="22.6075" cy="56.2955" r="9.29547" fill="url(#paint0_linear_9_574)" fill-opacity="0.16"/>
<circle cx="82.0986" cy="94.7167" r="3.71819" fill="#1F2937"/>
<circle cx="82.0986" cy="94.7167" r="3.71819" fill="url(#paint1_linear_9_574)" fill-opacity="0.16"/>
<path d="M81.4438 58.0254C84.4971 65.5484 80.8737 74.1222 73.3507 77.1755C72.5208 77.5123 71.6781 77.7678 70.8315 77.9459C66.1204 78.9367 60.8591 80.2841 58.3382 84.3856C55.3951 89.1741 57.0036 95.3927 61.3496 98.9571C70.015 106.064 77.0268 115.432 81.3829 126.619C94.9059 161.348 77.7149 200.464 42.9856 213.987C8.25636 227.51 -30.8599 210.319 -44.3829 175.59C-57.9059 140.861 -40.7149 101.745 -5.98562 88.2215C9.18342 82.3149 25.1894 82.2678 39.5341 86.9824C44.7299 88.69 50.6536 87.072 53.5174 82.4126L54.5823 80.68C56.694 77.2442 55.7172 72.8192 54.2006 69.0823C51.1473 61.5593 54.7707 52.9855 62.2937 49.9322C69.8167 46.8789 78.3906 50.5024 81.4438 58.0254Z" fill="#1F2937"/>
<path d="M81.4438 58.0254C84.4971 65.5484 80.8737 74.1222 73.3507 77.1755C72.5208 77.5123 71.6781 77.7678 70.8315 77.9459C66.1204 78.9367 60.8591 80.2841 58.3382 84.3856C55.3951 89.1741 57.0036 95.3927 61.3496 98.9571C70.015 106.064 77.0268 115.432 81.3829 126.619C94.9059 161.348 77.7149 200.464 42.9856 213.987C8.25636 227.51 -30.8599 210.319 -44.3829 175.59C-57.9059 140.861 -40.7149 101.745 -5.98562 88.2215C9.18342 82.3149 25.1894 82.2678 39.5341 86.9824C44.7299 88.69 50.6536 87.072 53.5174 82.4126L54.5823 80.68C56.694 77.2442 55.7172 72.8192 54.2006 69.0823C51.1473 61.5593 54.7707 52.9855 62.2937 49.9322C69.8167 46.8789 78.3906 50.5024 81.4438 58.0254Z" fill="url(#paint2_linear_9_574)" fill-opacity="0.16"/>
<circle cx="293.425" cy="90.9367" r="11" transform="rotate(-36.3301 293.425 90.9367)" fill="#1F2937"/>
<circle cx="293.425" cy="90.9367" r="11" transform="rotate(-36.3301 293.425 90.9367)" fill="url(#paint3_linear_9_574)" fill-opacity="0.16"/>
<circle cx="336.764" cy="49.6214" r="8.39107" transform="rotate(-36.3301 336.764 49.6214)" fill="#1F2937"/>
<circle cx="336.764" cy="49.6214" r="8.39107" transform="rotate(-36.3301 336.764 49.6214)" fill="url(#paint4_linear_9_574)" fill-opacity="0.16"/>
<circle cx="349.288" cy="95.1632" r="11.5" transform="rotate(-36.3301 349.288 95.1632)" fill="#1F2937"/>
<circle cx="349.288" cy="95.1632" r="11.5" transform="rotate(-36.3301 349.288 95.1632)" fill="url(#paint5_linear_9_574)" fill-opacity="0.16"/>
<circle cx="302.417" cy="57.259" r="4.19554" transform="rotate(-36.3301 302.417 57.259)" fill="#1F2937"/>
<circle cx="302.417" cy="57.259" r="4.19554" transform="rotate(-36.3301 302.417 57.259)" fill="url(#paint6_linear_9_574)" fill-opacity="0.16"/>
<circle cx="274.573" cy="57.7529" r="2.09777" transform="rotate(-36.3301 274.573 57.7529)" fill="#1F2937"/>
<circle cx="274.573" cy="57.7529" r="2.09777" transform="rotate(-36.3301 274.573 57.7529)" fill="url(#paint7_linear_9_574)" fill-opacity="0.16"/>
<circle cx="365.058" cy="165.519" r="76.1453" transform="rotate(-84.4813 365.058 165.519)" fill="#1F2937"/>
<circle cx="365.058" cy="165.519" r="76.1453" transform="rotate(-84.4813 365.058 165.519)" fill="url(#paint8_linear_9_574)" fill-opacity="0.16"/>
<path d="M196.004 115.326C189.665 115.326 184.03 114.461 179.1 112.73C174.19 111.02 170.045 108.494 166.664 105.154C163.283 101.833 160.718 97.7786 158.967 92.9893C157.216 88.2 156.331 82.7266 156.311 76.5689C156.331 70.5521 157.226 65.1289 158.997 60.2994C160.768 55.4497 163.354 51.3043 166.755 47.8633C170.155 44.4021 174.311 41.7459 179.221 39.8945C184.131 38.0432 189.715 37.1175 195.973 37.1175C201.869 37.1175 207.091 38.013 211.639 39.804C216.207 41.5949 220.061 44.0902 223.2 47.2898C226.359 50.4692 228.744 54.192 230.354 58.4581C231.984 62.7041 232.799 67.3123 232.799 72.2827C232.799 75.7237 232.537 78.9837 232.014 82.0625C231.491 85.1212 230.595 87.8378 229.327 90.2124C228.08 92.5869 226.379 94.4785 224.226 95.8871C222.073 97.2756 219.376 98.0302 216.137 98.1509C214.104 98.2515 212.323 98.0604 210.794 97.5774C209.265 97.0945 208.027 96.3398 207.081 95.3136C206.156 94.2672 205.572 92.9893 205.331 91.4801H204.968C204.506 92.6875 203.63 93.7943 202.342 94.8004C201.075 95.7865 199.505 96.5612 197.633 97.1246C195.762 97.668 193.679 97.8893 191.385 97.7887C188.93 97.668 186.656 97.1045 184.564 96.0984C182.491 95.0721 180.68 93.6433 179.13 91.8121C177.601 89.9608 176.414 87.7272 175.568 85.1111C174.723 82.4951 174.301 79.527 174.301 76.2067C174.301 72.9669 174.764 70.1094 175.689 67.6342C176.615 65.1591 177.852 63.0462 179.402 61.2955C180.972 59.5447 182.742 58.1764 184.714 57.1903C186.687 56.1842 188.719 55.5402 190.812 55.2585C192.985 54.9567 195.028 54.9869 196.939 55.3491C198.851 55.7113 200.441 56.2647 201.708 57.0092C202.996 57.7538 203.801 58.5688 204.123 59.4542H204.546V56.0735H212.967V84.8093C212.987 86.3185 213.35 87.536 214.054 88.4616C214.778 89.3873 215.785 89.8501 217.072 89.8501C218.682 89.8501 219.98 89.2163 220.966 87.9485C221.972 86.6606 222.697 84.6886 223.14 82.0323C223.602 79.3559 223.824 75.935 223.804 71.7695C223.824 68.3486 223.371 65.2496 222.445 62.4727C221.54 59.6755 220.252 57.2205 218.582 55.1076C216.911 52.9947 214.909 51.2339 212.575 49.8253C210.261 48.3965 207.685 47.32 204.848 46.5955C202.01 45.8711 198.982 45.5089 195.762 45.5089C190.832 45.5089 186.495 46.2635 182.752 47.7727C179.01 49.2618 175.87 51.3848 173.335 54.1417C170.819 56.8986 168.918 60.1686 167.63 63.9517C166.362 67.7147 165.728 71.8802 165.728 76.4482C165.728 81.3381 166.392 85.6746 167.72 89.4577C169.069 93.2208 171.041 96.3902 173.637 98.9659C176.233 101.542 179.442 103.494 183.266 104.822C187.109 106.15 191.526 106.814 196.517 106.814C198.811 106.814 201.054 106.633 203.248 106.271C205.441 105.908 207.413 105.486 209.164 105.003C210.915 104.52 212.263 104.097 213.209 103.735L215.774 111.402C214.527 112.046 212.836 112.67 210.703 113.273C208.591 113.877 206.256 114.37 203.701 114.752C201.165 115.135 198.599 115.326 196.004 115.326ZM193.891 89.1257C196.446 89.1257 198.489 88.6327 200.018 87.6467C201.547 86.6405 202.644 85.1514 203.308 83.1793C203.972 81.2073 204.294 78.7522 204.274 75.8143C204.274 73.0775 203.932 70.8338 203.248 69.0831C202.564 67.3324 201.467 66.0344 199.958 65.1893C198.448 64.3441 196.446 63.9215 193.951 63.9215C191.697 63.9215 189.775 64.4347 188.186 65.4609C186.616 66.4872 185.409 67.9059 184.564 69.717C183.738 71.5079 183.326 73.5504 183.326 75.8445C183.326 78.1385 183.658 80.3017 184.322 82.3342C185.006 84.3465 186.113 85.9865 187.642 87.2543C189.192 88.5019 191.275 89.1257 193.891 89.1257Z" fill="#252C36"/>
<path d="M196.004 115.326C189.665 115.326 184.03 114.461 179.1 112.73C174.19 111.02 170.045 108.494 166.664 105.154C163.283 101.833 160.718 97.7786 158.967 92.9893C157.216 88.2 156.331 82.7266 156.311 76.5689C156.331 70.5521 157.226 65.1289 158.997 60.2994C160.768 55.4497 163.354 51.3043 166.755 47.8633C170.155 44.4021 174.311 41.7459 179.221 39.8945C184.131 38.0432 189.715 37.1175 195.973 37.1175C201.869 37.1175 207.091 38.013 211.639 39.804C216.207 41.5949 220.061 44.0902 223.2 47.2898C226.359 50.4692 228.744 54.192 230.354 58.4581C231.984 62.7041 232.799 67.3123 232.799 72.2827C232.799 75.7237 232.537 78.9837 232.014 82.0625C231.491 85.1212 230.595 87.8378 229.327 90.2124C228.08 92.5869 226.379 94.4785 224.226 95.8871C222.073 97.2756 219.376 98.0302 216.137 98.1509C214.104 98.2515 212.323 98.0604 210.794 97.5774C209.265 97.0945 208.027 96.3398 207.081 95.3136C206.156 94.2672 205.572 92.9893 205.331 91.4801H204.968C204.506 92.6875 203.63 93.7943 202.342 94.8004C201.075 95.7865 199.505 96.5612 197.633 97.1246C195.762 97.668 193.679 97.8893 191.385 97.7887C188.93 97.668 186.656 97.1045 184.564 96.0984C182.491 95.0721 180.68 93.6433 179.13 91.8121C177.601 89.9608 176.414 87.7272 175.568 85.1111C174.723 82.4951 174.301 79.527 174.301 76.2067C174.301 72.9669 174.764 70.1094 175.689 67.6342C176.615 65.1591 177.852 63.0462 179.402 61.2955C180.972 59.5447 182.742 58.1764 184.714 57.1903C186.687 56.1842 188.719 55.5402 190.812 55.2585C192.985 54.9567 195.028 54.9869 196.939 55.3491C198.851 55.7113 200.441 56.2647 201.708 57.0092C202.996 57.7538 203.801 58.5688 204.123 59.4542H204.546V56.0735H212.967V84.8093C212.987 86.3185 213.35 87.536 214.054 88.4616C214.778 89.3873 215.785 89.8501 217.072 89.8501C218.682 89.8501 219.98 89.2163 220.966 87.9485C221.972 86.6606 222.697 84.6886 223.14 82.0323C223.602 79.3559 223.824 75.935 223.804 71.7695C223.824 68.3486 223.371 65.2496 222.445 62.4727C221.54 59.6755 220.252 57.2205 218.582 55.1076C216.911 52.9947 214.909 51.2339 212.575 49.8253C210.261 48.3965 207.685 47.32 204.848 46.5955C202.01 45.8711 198.982 45.5089 195.762 45.5089C190.832 45.5089 186.495 46.2635 182.752 47.7727C179.01 49.2618 175.87 51.3848 173.335 54.1417C170.819 56.8986 168.918 60.1686 167.63 63.9517C166.362 67.7147 165.728 71.8802 165.728 76.4482C165.728 81.3381 166.392 85.6746 167.72 89.4577C169.069 93.2208 171.041 96.3902 173.637 98.9659C176.233 101.542 179.442 103.494 183.266 104.822C187.109 106.15 191.526 106.814 196.517 106.814C198.811 106.814 201.054 106.633 203.248 106.271C205.441 105.908 207.413 105.486 209.164 105.003C210.915 104.52 212.263 104.097 213.209 103.735L215.774 111.402C214.527 112.046 212.836 112.67 210.703 113.273C208.591 113.877 206.256 114.37 203.701 114.752C201.165 115.135 198.599 115.326 196.004 115.326ZM193.891 89.1257C196.446 89.1257 198.489 88.6327 200.018 87.6467C201.547 86.6405 202.644 85.1514 203.308 83.1793C203.972 81.2073 204.294 78.7522 204.274 75.8143C204.274 73.0775 203.932 70.8338 203.248 69.0831C202.564 67.3324 201.467 66.0344 199.958 65.1893C198.448 64.3441 196.446 63.9215 193.951 63.9215C191.697 63.9215 189.775 64.4347 188.186 65.4609C186.616 66.4872 185.409 67.9059 184.564 69.717C183.738 71.5079 183.326 73.5504 183.326 75.8445C183.326 78.1385 183.658 80.3017 184.322 82.3342C185.006 84.3465 186.113 85.9865 187.642 87.2543C189.192 88.5019 191.275 89.1257 193.891 89.1257Z" fill="url(#paint9_linear_9_574)" fill-opacity="0.16"/>
</g>
<defs>
<linearGradient id="paint0_linear_9_574" x1="22.6075" y1="47" x2="22.6075" y2="65.5909" gradientUnits="userSpaceOnUse">
<stop stop-color="white"/>
<stop offset="1" stop-color="white" stop-opacity="0"/>
</linearGradient>
<linearGradient id="paint1_linear_9_574" x1="82.0986" y1="90.9985" x2="82.0986" y2="98.4349" gradientUnits="userSpaceOnUse">
<stop stop-color="white"/>
<stop offset="1" stop-color="white" stop-opacity="0"/>
</linearGradient>
<linearGradient id="paint2_linear_9_574" x1="18.5" y1="48.8492" x2="18.5" y2="218.604" gradientUnits="userSpaceOnUse">
<stop stop-color="white"/>
<stop offset="1" stop-color="white" stop-opacity="0"/>
</linearGradient>
<linearGradient id="paint3_linear_9_574" x1="293.425" y1="79.9367" x2="293.425" y2="101.937" gradientUnits="userSpaceOnUse">
<stop stop-color="white"/>
<stop offset="1" stop-color="white" stop-opacity="0"/>
</linearGradient>
<linearGradient id="paint4_linear_9_574" x1="336.764" y1="41.2303" x2="336.764" y2="58.0124" gradientUnits="userSpaceOnUse">
<stop stop-color="white"/>
<stop offset="1" stop-color="white" stop-opacity="0"/>
</linearGradient>
<linearGradient id="paint5_linear_9_574" x1="349.288" y1="83.6632" x2="349.288" y2="106.663" gradientUnits="userSpaceOnUse">
<stop stop-color="white"/>
<stop offset="1" stop-color="white" stop-opacity="0"/>
</linearGradient>
<linearGradient id="paint6_linear_9_574" x1="302.417" y1="53.0635" x2="302.417" y2="61.4545" gradientUnits="userSpaceOnUse">
<stop stop-color="white"/>
<stop offset="1" stop-color="white" stop-opacity="0"/>
</linearGradient>
<linearGradient id="paint7_linear_9_574" x1="274.573" y1="55.6552" x2="274.573" y2="59.8507" gradientUnits="userSpaceOnUse">
<stop stop-color="white"/>
<stop offset="1" stop-color="white" stop-opacity="0"/>
</linearGradient>
<linearGradient id="paint8_linear_9_574" x1="365.058" y1="89.3741" x2="365.058" y2="241.665" gradientUnits="userSpaceOnUse">
<stop stop-color="white"/>
<stop offset="1" stop-color="white" stop-opacity="0"/>
</linearGradient>
<linearGradient id="paint9_linear_9_574" x1="194" y1="38" x2="194" y2="97" gradientUnits="userSpaceOnUse">
<stop stop-color="#1E1E1E"/>
<stop offset="1" stop-color="white" stop-opacity="0"/>
</linearGradient>
<clipPath id="clip0_9_574">
<rect width="388" height="143" rx="8" fill="white"/>
</clipPath>
</defs>
</svg>
